<svg width="270" height="21" viewBox="0 0 270 21" fill="none" xmlns="http://www.w3.org/2000/svg">
<path d="M20.416 16L24.544 4.8H26.4L30.496 16H28.704L27.744 13.264H23.168L22.208 16H20.416ZM23.648 11.92H27.264L25.456 6.816L23.648 11.92ZM31.6739 16V8.064H33.1939L33.3379 9.568C33.6152 9.04533 33.9992 8.63467 34.4899 8.336C34.9912 8.02667 35.5939 7.872 36.2979 7.872V9.648H35.8339C35.3645 9.648 34.9432 9.728 34.5699 9.888C34.2072 10.0373 33.9139 10.2987 33.6899 10.672C33.4765 11.0347 33.3699 11.5413 33.3699 12.192V16H31.6739ZM43.6133 19.52V14.768C43.3573 15.1413 43.0053 15.472 42.5573 15.76C42.1093 16.048 41.5333 16.192 40.8293 16.192C40.0613 16.192 39.3839 16.0107 38.7973 15.648C38.2106 15.2853 37.7519 14.7893 37.4213 14.16C37.0906 13.5307 36.9253 12.816 36.9253 12.016C36.9253 11.216 37.0906 10.5067 37.4213 9.888C37.7519 9.25867 38.2106 8.768 38.7973 8.416C39.3946 8.05333 40.0773 7.872 40.8453 7.872C41.4746 7.872 42.0239 7.99467 42.4933 8.24C42.9733 8.48533 43.3466 8.832 43.6133 9.28L43.7893 8.064H45.3093V19.52H43.6133ZM41.1333 14.72C41.8586 14.72 42.4506 14.4693 42.9093 13.968C43.3786 13.4667 43.6133 12.8213 43.6133 12.032C43.6133 11.232 43.3786 10.5867 42.9093 10.096C42.4506 9.59467 41.8586 9.344 41.1333 9.344C40.4079 9.344 39.8106 9.59467 39.3413 10.096C38.8719 10.5867 38.6373 11.232 38.6373 12.032C38.6373 12.5547 38.7439 13.0187 38.9573 13.424C39.1706 13.8293 39.4639 14.1493 39.8373 14.384C40.2213 14.608 40.6533 14.72 41.1333 14.72ZM50.0556 16.192C49.0956 16.192 48.3383 15.8933 47.7836 15.296C47.2396 14.6987 46.9676 13.808 46.9676 12.624V8.064H48.6636V12.448C48.6636 13.984 49.293 14.752 50.5516 14.752C51.181 14.752 51.6983 14.528 52.1036 14.08C52.509 13.632 52.7116 12.992 52.7116 12.16V8.064H54.4076V16H52.9036L52.7756 14.608C52.5303 15.0987 52.1676 15.488 51.6876 15.776C51.2183 16.0533 50.6743 16.192 50.0556 16.192ZM57.2051 6.56C56.8851 6.56 56.6185 6.464 56.4051 6.272C56.2025 6.06933 56.1011 5.81867 56.1011 5.52C56.1011 5.22133 56.2025 4.976 56.4051 4.784C56.6185 4.58133 56.8851 4.48 57.2051 4.48C57.5251 4.48 57.7865 4.58133 57.9891 4.784C58.2025 4.976 58.3091 5.22133 58.3091 5.52C58.3091 5.81867 58.2025 6.06933 57.9891 6.272C57.7865 6.464 57.5251 6.56 57.2051 6.56ZM56.3571 16V8.064H58.0531V16H56.3571ZM62.196 16L59.22 8.064H60.996L63.204 14.384L65.412 8.064H67.172L64.212 16H62.196ZM71.5515 16.192C70.7942 16.192 70.1115 16.0213 69.5035 15.68C68.9062 15.328 68.4315 14.8427 68.0795 14.224C67.7275 13.5947 67.5515 12.864 67.5515 12.032C67.5515 11.2 67.7275 10.4747 68.0795 9.856C68.4422 9.22667 68.9275 8.74133 69.5355 8.4C70.1435 8.048 70.8208 7.872 71.5675 7.872C72.3248 7.872 73.0022 8.048 73.5995 8.4C74.2075 8.74133 74.6875 9.22667 75.0395 9.856C75.4022 10.4747 75.5835 11.2 75.5835 12.032C75.5835 12.864 75.4022 13.5947 75.0395 14.224C74.6875 14.8427 74.2075 15.328 73.5995 15.68C72.9915 16.0213 72.3088 16.192 71.5515 16.192ZM71.5515 14.736C71.9568 14.736 72.3302 14.6347 72.6715 14.432C73.0235 14.2293 73.3062 13.9307 73.5195 13.536C73.7328 13.1307 73.8395 12.6293 73.8395 12.032C73.8395 11.4347 73.7328 10.9387 73.5195 10.544C73.3168 10.1387 73.0395 9.83467 72.6875 9.632C72.3462 9.42933 71.9728 9.328 71.5675 9.328C71.1622 9.328 70.7835 9.42933 70.4315 9.632C70.0902 9.83467 69.8128 10.1387 69.5995 10.544C69.3862 10.9387 69.2795 11.4347 69.2795 12.032C69.2795 12.6293 69.3862 13.1307 69.5995 13.536C69.8128 13.9307 70.0902 14.2293 70.4315 14.432C70.7728 14.6347 71.1462 14.736 71.5515 14.736ZM80.2656 16.192C79.263 16.192 78.4363 15.9467 77.7856 15.456C77.135 14.9653 76.7616 14.3147 76.6656 13.504H78.3776C78.463 13.8667 78.6656 14.1813 78.9856 14.448C79.3056 14.704 79.727 14.832 80.2496 14.832C80.7616 14.832 81.135 14.7253 81.3696 14.512C81.6043 14.2987 81.7216 14.0533 81.7216 13.776C81.7216 13.3707 81.5563 13.0987 81.2256 12.96C80.9056 12.8107 80.4576 12.6773 79.8816 12.56C79.4336 12.464 78.9856 12.336 78.5376 12.176C78.1003 12.016 77.7323 11.792 77.4336 11.504C77.1456 11.2053 77.0016 10.8053 77.0016 10.304C77.0016 9.61067 77.2683 9.03467 77.8016 8.576C78.335 8.10667 79.0816 7.872 80.0416 7.872C80.927 7.872 81.6416 8.08533 82.1856 8.512C82.7403 8.93867 83.0656 9.54133 83.1616 10.32H81.5296C81.4763 9.97867 81.3163 9.712 81.0496 9.52C80.7936 9.328 80.447 9.232 80.0096 9.232C79.583 9.232 79.2523 9.32267 79.0176 9.504C78.783 9.67467 78.6656 9.89867 78.6656 10.176C78.6656 10.4533 78.8256 10.672 79.1456 10.832C79.4763 10.992 79.9083 11.136 80.4416 11.264C80.975 11.3813 81.4656 11.52 81.9136 11.68C82.3723 11.8293 82.7403 12.0533 83.0176 12.352C83.295 12.6507 83.4336 13.088 83.4336 13.664C83.4443 14.3893 83.1616 14.992 82.5856 15.472C82.0203 15.952 81.247 16.192 80.2656 16.192Z" fill="white"/>
<path d="M1 11L14.5 11" stroke="#1FC8E1" stroke-width="2" stroke-linecap="round"/>
<path d="M91 10L269 10" stroke="#1FC8E1" stroke-width="2" stroke-linecap="round"/>
</svg>
